<svg version="1.1" id="Layer_1" xmlns="http://www.w3.org/2000/svg" xmlns:xlink="http://www.w3.org/1999/xlink" x="0px" y="0px"
	 width="100%" viewBox="0 0 1024 1024" enable-background="new 0 0 1024 1024" xml:space="preserve">

<path fill="#8b5cf6" opacity="1.000000" stroke="none" 
	d="
M422.103241,540.888428 
	C416.274628,531.081360 407.563995,526.398499 397.553070,521.887146 
	C372.580719,510.633514 363.590851,478.781097 377.229279,453.977173 
	C379.743011,449.405487 380.721832,445.301666 379.912994,439.907196 
	C376.953217,420.166687 384.077087,404.670563 401.368134,394.281372 
	C403.802704,392.818573 404.740753,390.869812 405.346100,388.352936 
	C411.027893,364.729675 429.220825,352.211334 453.067261,355.575043 
	C456.336456,356.036163 458.579987,355.283020 460.841187,352.628540 
	C476.522736,334.219452 495.979095,328.463989 519.169373,335.770660 
	C521.542908,336.518555 523.974060,337.320557 526.427795,337.536346 
	C537.130798,338.477539 546.208557,343.021088 554.384521,349.689362 
	C556.204529,351.173676 557.877197,352.291565 560.593567,352.099609 
	C586.291626,350.283539 607.288086,365.066406 614.171387,389.842651 
	C615.160461,393.402893 616.553650,395.237885 620.434021,396.251373 
	C640.718689,401.549377 655.858459,421.715454 656.398682,442.815643 
	C656.933472,463.705933 649.198425,480.062073 631.082336,490.994934 
	C628.784546,492.381653 628.011230,494.287048 627.493408,496.608398 
	C621.028625,525.590698 599.497498,544.800232 569.942871,547.028076 
	C554.840637,548.166443 541.452332,543.024780 530.112976,532.854980 
	C529.124146,531.968140 528.165710,531.047424 527.180176,530.156799 
	C527.068176,530.055603 526.871826,530.047791 526.369629,529.884583 
	C522.697998,533.147644 519.105164,536.833557 515.032654,539.877747 
	C493.012604,556.337646 468.619171,560.493774 442.266113,553.147400 
	C434.607727,551.012573 428.041992,546.718262 422.103241,540.888428 
M475.891602,411.475708 
	C480.267761,406.862732 485.703003,404.863037 491.992035,404.652496 
	C506.363708,404.171417 517.013306,410.436584 524.323792,422.530396 
	C525.942078,425.207520 527.337402,426.482941 530.838074,426.405762 
	C542.405701,426.150696 552.737793,429.950775 561.697266,437.383026 
	C563.112732,438.557159 564.327332,440.217163 566.505127,440.507355 
	C567.065247,435.897888 566.231079,431.553833 567.319885,427.270355 
	C571.643066,410.261841 582.551880,399.954620 599.378784,395.823364 
	C603.295593,394.861755 604.186951,393.281464 602.832397,389.523468 
	C598.149475,376.531677 589.370544,367.828156 576.157166,363.904053 
	C557.180115,358.268250 538.994995,367.658844 533.687683,385.773346 
	C532.520203,389.758179 530.618896,392.243378 526.286499,390.963165 
	C521.980835,389.690887 522.179382,386.069122 523.148865,382.727539 
	C525.991577,372.929199 531.649597,365.117279 540.205811,359.444397 
	C541.649353,358.487366 543.697571,358.134033 544.234619,355.791077 
	C540.696838,352.367401 536.412903,350.149963 531.627075,349.330841 
	C524.070435,348.037415 516.704956,346.001251 509.249542,344.314667 
	C496.322418,341.390259 484.818695,344.882263 474.800385,353.273529 
	C468.053802,358.924500 468.205688,359.867981 475.229370,365.084595 
	C476.298431,365.878601 477.349915,366.707642 478.332184,367.605133 
	C482.307190,371.237091 485.767517,375.262421 487.649323,380.412506 
	C488.695312,383.275146 488.141907,385.736359 485.354004,387.267365 
	C482.424805,388.875977 480.253662,387.652252 478.614166,385.074768 
	C477.988464,384.091064 477.435608,383.060974 476.809753,382.077362 
	C468.779785,369.456635 453.137634,363.063660 438.638611,366.468323 
	C421.475555,370.498596 411.229095,388.051331 416.699829,404.050659 
	C421.404694,417.810120 439.536896,424.278320 450.783661,416.209198 
	C457.321899,411.518219 458.982086,401.260712 454.163330,395.327362 
	C449.799133,389.953705 441.514191,389.826843 435.884766,394.836914 
	C434.442841,396.120239 433.604523,399.518219 430.994873,397.926697 
	C428.580566,396.454315 429.431213,393.373230 429.820831,390.963043 
	C430.352753,387.672729 432.346771,385.208527 435.106750,383.396973 
	C440.884979,379.604370 447.011932,379.420898 453.248138,381.973267 
	C463.071899,385.993896 468.093750,395.266113 467.331085,407.651611 
	C466.752716,417.043457 458.573578,426.266571 448.285889,429.127747 
	C432.012207,433.653717 414.600098,425.477966 407.502930,410.047943 
	C406.778442,408.472778 406.738037,406.355682 404.667450,405.643402 
	C394.701965,410.386414 386.882446,427.363495 390.941833,436.033905 
	C396.387909,432.846375 401.662445,429.329712 407.683014,427.322113 
	C411.331696,426.105469 414.479462,426.604187 415.788574,430.636902 
	C417.041412,434.496307 414.772736,436.503235 411.318939,437.633881 
	C403.340576,440.245575 396.901093,445.061310 391.424622,451.365906 
	C375.583313,469.602722 378.885315,498.481232 398.821655,510.417725 
	C413.819672,519.397461 430.130127,521.404358 446.896118,515.669556 
	C461.662323,510.618835 469.773102,497.970337 468.681030,482.483490 
	C467.692505,468.465942 454.573273,458.563049 440.846619,461.473175 
	C433.495178,463.031708 427.697144,469.808258 427.518829,477.050140 
	C427.359406,483.527374 431.611298,488.061096 439.648254,489.982697 
	C439.972382,490.060181 440.306671,490.106415 440.620575,490.213226 
	C441.694519,490.578583 443.030029,490.630676 443.342346,492.051270 
	C443.679962,493.587128 442.704285,494.551025 441.650452,495.413635 
	C439.055511,497.537659 436.106750,498.318237 432.787415,497.737427 
	C425.696838,496.496643 421.258026,492.226624 418.770691,485.637604 
	C412.587799,469.258759 424.711090,448.639771 447.579102,450.082184 
	C469.107788,451.440094 483.724823,472.821014 478.712494,493.930176 
	C474.228882,512.812683 460.540894,525.151672 440.951935,528.404236 
	C437.001373,529.060181 432.718079,528.421509 428.049744,530.888977 
	C435.860687,540.937805 446.220276,544.614136 457.434509,545.502930 
	C481.029999,547.372925 501.824371,541.270691 517.989685,522.193909 
	C515.643555,520.012817 513.644714,518.299561 511.809998,516.425598 
	C498.439697,502.769012 501.184265,480.290070 517.281006,471.377563 
	C529.866760,464.409058 546.053223,469.791504 549.689636,482.154358 
	C551.200562,487.291229 549.877075,491.237396 545.774414,493.609711 
	C543.533386,491.898499 543.257385,489.040436 541.954163,486.783051 
	C538.699951,481.145966 534.001160,478.432007 527.454041,479.193726 
	C521.170166,479.924805 517.126343,483.507721 515.033813,489.317627 
	C511.819580,498.242065 515.877808,508.449982 524.379578,512.718994 
	C532.213928,516.652832 540.254089,516.164429 548.061462,512.825134 
	C561.380005,507.128601 567.522034,496.036774 569.271362,482.368896 
	C572.675842,455.768799 550.849976,434.661224 528.259827,437.196259 
	C520.260010,438.093994 520.243591,437.947449 516.979919,430.568329 
	C509.427795,413.493073 488.643921,409.746307 475.713165,423.114655 
	C474.718414,424.143097 474.070007,425.682770 471.706024,425.726654 
	C470.750519,420.549225 472.345520,416.118744 475.891602,411.475708 
M625.155945,443.575134 
	C623.317810,466.046295 605.456055,473.339661 578.408813,462.307007 
	C579.971375,469.345306 581.201050,476.300751 579.930542,483.167114 
	C579.058899,487.878143 581.116333,488.951660 584.900818,489.588623 
	C599.459778,492.039154 613.065674,489.371124 625.742065,481.989899 
	C651.455750,467.017334 653.056152,428.586975 628.736267,411.470947 
	C609.001770,397.582123 581.974609,407.711182 577.664795,430.611237 
	C575.008362,444.725800 584.397156,457.405029 597.731995,457.711151 
	C605.494202,457.889374 611.640320,454.027588 613.865173,447.574219 
	C615.987183,441.419464 614.110229,436.701691 607.088623,431.719818 
	C604.026855,429.547516 605.029358,427.815125 607.310913,426.387756 
	C611.114990,424.007812 614.728821,425.350708 617.922180,427.842651 
	C622.723572,431.589325 624.353821,436.965942 625.155945,443.575134 
M586.480591,517.378967 
	C581.081421,527.213806 570.141357,531.024353 560.086121,524.992493 
	C552.268616,520.303040 546.899292,525.869263 540.399536,526.936157 
	C554.767639,538.038269 570.304016,539.156799 586.436951,532.308533 
	C601.231323,526.028564 611.114075,515.128174 615.704773,499.248810 
	C614.540649,499.093719 614.035034,498.895935 613.587158,498.985809 
	C601.908325,501.329865 590.231934,502.400696 578.534912,499.096741 
	C577.552307,498.819153 576.293091,498.612396 575.781738,499.586151 
	C572.806580,505.251251 568.791809,510.230621 564.066162,515.694031 
	C576.444641,519.354065 579.716736,510.609802 583.644409,502.833191 
	C588.283752,507.482452 587.631653,512.040283 586.480591,517.378967 
z"/>
<path fill="#6366f1" opacity="1.000000" stroke="none" 
	d="
M463.852112,653.878906 
	C450.247559,657.100342 434.791718,646.019592 431.862305,630.921448 
	C429.587738,619.198303 428.200256,607.296875 423.358795,596.206360 
	C422.148315,593.433472 423.214325,591.096436 425.857178,590.059204 
	C429.061737,588.801636 431.762787,589.895203 433.252136,593.166565 
	C436.854645,601.079407 438.961151,609.425720 440.301697,617.983521 
	C440.738037,620.769043 441.012787,623.583557 441.541718,626.350342 
	C443.618011,637.211243 448.765472,642.160156 460.018585,644.247131 
	C466.610229,645.469604 467.941162,648.477417 463.852112,653.878906 
z"/>
<path fill="#8b5cf6" opacity="1.000000" stroke="none" 
	d="
M466.902679,724.157837 
	C463.030151,724.696167 459.593384,725.178894 456.520172,725.610535 
	C455.082581,726.916748 455.926636,728.083435 455.938629,729.185364 
	C455.964935,731.599548 454.895020,733.357056 452.673035,734.291504 
	C450.451447,735.225708 448.326752,734.820496 446.706818,733.091187 
	C443.939606,730.136963 441.884644,726.672119 440.953918,722.728333 
	C439.837280,717.996643 443.012085,716.479919 446.804047,715.916016 
	C456.659668,714.450378 466.537048,713.131836 476.402740,711.733337 
	C484.296356,710.614319 492.204712,709.580017 500.068390,708.277832 
	C503.915466,707.640869 507.025604,708.393982 507.787842,712.431519 
	C508.599701,716.731812 505.456421,718.152832 501.809357,718.718506 
	C490.317169,720.500854 478.828522,722.305908 466.902679,724.157837 
z"/>
<path fill="#6366f1" opacity="1.000000" stroke="none" 
	d="
M455.578552,698.751343 
	C452.535553,699.295532 449.930054,699.834839 447.297729,700.150940 
	C442.583649,700.716797 440.234100,698.979370 440.107422,694.207703 
	C439.887085,685.909241 439.978943,677.598999 440.110321,669.296326 
	C440.163116,665.960510 441.737946,663.346375 445.415863,663.270142 
	C449.179749,663.192078 450.654999,665.843323 450.728607,669.179565 
	C450.863281,675.284119 450.766968,681.393860 450.766968,687.915771 
	C459.231812,688.028809 466.606598,686.050964 474.099548,685.270203 
	C476.621216,685.007446 478.860077,685.588501 479.903534,688.084656 
	C480.786255,690.196411 480.542480,692.345642 478.748840,694.047729 
	C477.208130,695.509888 475.153870,695.754700 473.222473,696.073547 
	C467.497498,697.018799 461.745422,697.800293 455.578552,698.751343 
z"/>
<path fill="#8b5cf6" opacity="1.000000" stroke="none" 
	d="
M623.556152,298.571167 
	C626.435974,301.318085 626.904846,303.999603 624.132507,306.592896 
	C621.572083,308.987976 619.030273,308.220398 616.555908,306.156189 
	C605.097961,296.597473 592.457397,288.937897 578.813721,282.933807 
	C575.392517,281.428253 573.620911,278.964661 575.045959,275.430756 
	C576.633118,271.494995 579.991516,272.107758 583.100098,273.428406 
	C597.768127,279.659760 611.161255,287.969574 623.556152,298.571167 
z"/>
<path fill="#6366f1" opacity="1.000000" stroke="none" 
	d="
M509.115234,268.319916 
	C504.664368,268.627380 500.699127,268.989929 496.726227,269.221130 
	C493.318359,269.419403 490.588074,268.160126 490.399933,264.450012 
	C490.217438,260.851044 492.678101,259.154510 496.064728,258.753784 
	C511.695007,256.904388 527.212158,257.747864 542.646057,260.693115 
	C546.337769,261.397614 549.178467,263.005127 548.259583,267.281342 
	C547.398499,271.288574 544.202576,271.607941 540.782288,270.947754 
	C530.480835,268.959442 520.092163,268.011871 509.115234,268.319916 
z"/>
<path fill="#8b5cf6" opacity="1.000000" stroke="none" 
	d="
M341.578308,410.706390 
	C341.986267,403.248566 343.475250,396.415863 344.938141,389.592468 
	C345.663055,386.211212 347.566040,383.572784 351.527832,384.332123 
	C355.683014,385.128540 356.069122,388.427673 355.273590,391.755127 
	C351.881531,405.943085 350.827087,420.323547 351.199371,434.864990 
	C351.289185,438.372101 349.935455,441.287903 345.814514,441.205658 
	C342.040985,441.130432 340.671143,438.478882 340.718384,435.097534 
	C340.829926,427.113983 340.032837,419.095337 341.578308,410.706390 
z"/>
<path fill="#6366f1" opacity="1.000000" stroke="none" 
	d="
M685.329712,420.062317 
	C685.269897,430.353546 685.818054,440.175110 684.312134,449.925537 
	C684.084167,451.401428 683.929199,452.891327 683.636108,454.353851 
	C682.994934,457.553894 681.116699,459.642731 677.745300,459.056732 
	C674.288208,458.455841 672.758850,456.005432 673.335938,452.447327 
	C675.316895,440.233124 675.063721,427.936737 674.649536,415.640076 
	C674.566040,413.160095 674.025269,410.696808 673.917175,408.216156 
	C673.778015,405.022003 675.076843,402.471161 678.487061,402.166595 
	C681.813049,401.869598 683.796265,403.958893 684.203186,407.174988 
	C684.723633,411.288666 684.964600,415.437683 685.329712,420.062317 
z"/>
<path fill="#8b5cf6" opacity="1.000000" stroke="none" 
	d="
M420.462433,297.589783 
	C417.232117,299.437500 414.608002,299.079529 412.811005,296.190918 
	C410.910828,293.136475 412.461578,290.673096 414.937500,288.883209 
	C427.583160,279.741364 441.357086,272.758850 456.171570,267.878357 
	C459.077667,266.920959 462.027740,267.157532 463.123718,270.692108 
	C464.180511,274.100372 462.803955,276.461700 459.353455,277.675049 
	C445.608368,282.508484 432.716309,289.027802 420.462433,297.589783 
z"/>
<path fill="#6366f1" opacity="1.000000" stroke="none" 
	d="
M671.517517,361.612701 
	C672.617981,364.268494 673.623474,366.553497 674.498840,368.887299 
	C675.727478,372.163177 674.370056,374.526123 671.388123,375.749634 
	C668.331360,377.003845 666.254333,375.334534 665.004333,372.617340 
	C663.474915,369.292755 662.149536,365.874390 660.623779,362.548035 
	C656.095032,352.674805 650.401611,343.493805 643.920776,334.792969 
	C641.799072,331.944366 640.824585,328.906403 644.107422,326.481171 
	C647.345886,324.088654 650.035889,325.812836 652.179871,328.636963 
	C659.862000,338.756042 666.315430,349.596771 671.517517,361.612701 
z"/>
<path fill="#8b5cf6" opacity="1.000000" stroke="none" 
	d="
M548.840088,712.130249 
	C545.266174,712.560669 542.141113,713.034851 538.998108,713.278870 
	C535.720093,713.533386 533.356995,712.021057 532.935608,708.705872 
	C532.498901,705.270020 534.769226,703.381958 537.857727,702.902893 
	C551.639771,700.765198 565.439026,698.733154 579.249023,696.783630 
	C582.729431,696.292297 585.778442,697.314880 586.221802,701.359314 
	C586.673889,705.482727 583.711426,706.763184 580.314392,707.292603 
	C569.972778,708.904297 559.625793,710.481995 548.840088,712.130249 
z"/>
<path fill="#6366f1" opacity="1.000000" stroke="none" 
	d="
M390.506714,314.274384 
	C394.450287,317.308105 394.017731,320.436951 391.246887,323.443604 
	C382.637787,332.785370 375.603973,343.216125 369.535736,354.334808 
	C369.218048,354.916809 368.890717,355.501770 368.496704,356.032501 
	C366.652802,358.516388 364.388306,360.139374 361.286774,358.387360 
	C358.253784,356.674042 358.025330,353.858124 359.438354,351.039093 
	C365.956055,338.035767 374.372742,326.342590 384.261292,315.700806 
	C385.840851,314.000946 387.825684,313.312225 390.506714,314.274384 
z"/>
<path fill="#8b5cf6" opacity="1.000000" stroke="none" 
	d="
M574.412109,737.403320 
	C570.269165,741.327820 566.094666,744.652344 561.013184,746.445618 
	C557.187195,747.795898 554.345520,749.886475 552.745728,753.720764 
	C552.198608,755.032104 551.104309,756.237061 549.987427,757.161255 
	C548.151917,758.680237 545.991455,758.640869 543.918274,757.548096 
	C542.027832,756.551697 540.919006,754.943848 540.802795,752.780334 
	C540.634949,749.656494 546.357056,740.796143 549.446167,739.659119 
	C557.631226,736.646790 565.279053,732.947144 570.877136,725.835938 
	C572.696533,723.524719 575.486267,723.111328 577.952087,725.238586 
	C580.492004,727.429871 580.698547,730.092896 578.687561,732.744324 
	C577.491211,734.321716 576.016785,735.688110 574.412109,737.403320 
z"/>
<path fill="#6366f1" opacity="1.000000" stroke="none" 
	d="
M410.514465,556.607788 
	C411.685852,558.048096 412.782379,559.119629 413.509064,560.400940 
	C414.986633,563.006470 414.836853,565.629883 412.390717,567.547241 
	C409.906830,569.494202 407.327240,569.003723 405.290649,566.720398 
	C397.557220,558.050232 389.860962,549.346069 382.230194,540.585510 
	C379.897339,537.907349 379.112366,534.781921 382.275787,532.286743 
	C385.356293,529.856995 388.207977,531.252747 390.544189,533.903198 
	C397.128296,541.372986 403.697327,548.856079 410.514465,556.607788 
z"/>
<path fill="#8b5cf6" opacity="1.000000" stroke="none" 
	d="
M360.665009,508.576721 
	C354.250214,497.919373 350.289124,486.654572 346.985046,475.140564 
	C346.112244,472.099152 346.873077,469.387909 350.263702,468.357239 
	C353.660217,467.324799 355.863434,469.214142 356.779816,472.172913 
	C359.980652,482.507874 363.755646,492.592407 368.674774,502.244476 
	C369.891632,504.632050 369.995667,507.131470 367.693237,509.042542 
	C365.455566,510.899933 363.133759,510.722931 360.665009,508.576721 
z"/>
<path fill="#6366f1" opacity="1.000000" stroke="none" 
	d="
M656.841980,501.857971 
	C658.933167,497.488129 660.837036,493.434937 662.751709,489.386810 
	C664.219727,486.282898 666.208374,483.731171 670.035950,485.506500 
	C673.551025,487.136871 673.890869,490.073456 672.417236,493.489838 
	C668.465332,502.652130 663.916138,511.483459 658.408630,519.818848 
	C656.279358,523.041382 653.512634,524.658386 650.059387,522.400208 
	C646.633728,520.159973 647.623962,517.083496 649.473389,514.116699 
	C651.930420,510.175232 654.269531,506.160217 656.841980,501.857971 
z"/>
<path fill="#8b5cf6" opacity="1.000000" stroke="none" 
	d="
M580.702087,650.338989 
	C576.963623,653.953674 572.418335,654.710571 567.986084,655.012268 
	C561.514893,655.452881 554.995972,655.292114 548.499329,655.216492 
	C545.115845,655.177124 542.576721,653.630981 542.550659,649.891724 
	C542.524231,646.096863 545.004761,644.799988 548.481812,644.685242 
	C557.261292,644.395447 566.074707,645.435059 574.783081,642.847168 
	C578.923584,641.616577 581.101135,644.624207 580.702087,650.338989 
z"/>
<path fill="#6366f1" opacity="1.000000" stroke="none" 
	d="
M489.439270,747.547485 
	C487.795258,747.959839 486.525330,748.283386 485.512787,748.541382 
	C484.595886,749.518188 485.050232,750.322937 485.181213,751.110718 
	C485.658051,753.979187 485.222198,756.506042 482.207458,757.731140 
	C479.176544,758.962891 477.110138,757.188843 475.330414,755.090820 
	C472.985016,752.326050 471.088837,749.260681 468.394287,746.689331 
	C465.636169,744.057312 467.326691,741.092163 470.349579,740.042542 
	C476.640594,737.858093 483.353210,737.578308 489.941040,737.076660 
	C492.653259,736.870056 494.674988,739.021851 494.841797,741.800781 
	C495.038239,745.073547 493.134949,747.031433 489.439270,747.547485 
z"/>
<path fill="#8b5cf6" opacity="1.000000" stroke="none" 
	d="
M619.519226,568.613037 
	C617.052307,571.999146 614.255188,573.620361 610.874268,570.872681 
	C607.495117,568.126526 608.607910,565.063477 611.014526,562.163879 
	C615.798340,556.400208 620.503967,550.571228 625.319885,544.834717 
	C627.703918,541.994934 630.708496,540.314026 633.882141,543.340027 
	C637.009766,546.322144 635.380798,549.190796 632.948975,552.032166 
	C628.405884,557.340393 624.126099,562.873901 619.519226,568.613037 
z"/>
<path fill="#6366f1" opacity="1.000000" stroke="none" 
	d="
M587.605774,611.774353 
	C588.987061,606.405579 590.166443,601.409363 591.708374,596.527710 
	C592.699036,593.391174 594.919128,591.189270 598.487244,592.496277 
	C602.089417,593.815735 602.876404,596.648865 601.456360,600.185730 
	C598.721924,606.996033 597.602905,614.210388 596.369446,621.380798 
	C595.786682,624.768738 594.313293,627.308716 590.606201,626.630188 
	C586.952087,625.961426 585.557800,623.189392 586.209534,619.510986 
	C586.642090,617.069519 587.107056,614.633789 587.605774,611.774353 
z"/>
<path fill="#8b5cf6" opacity="1.000000" stroke="none" 
	d="
M522.683105,688.986450 
	C518.469238,689.501526 514.695068,690.037781 510.901947,690.318481 
	C508.065369,690.528320 506.034515,689.231689 505.612671,686.244873 
	C505.177551,683.164368 506.515106,680.856018 509.583954,680.320496 
	C517.079163,679.012512 524.606140,677.838989 532.158569,676.928833 
	C535.380615,676.540588 537.696960,678.495483 538.049988,681.724915 
	C538.390137,684.836670 536.357178,686.631226 533.406860,687.196167 
	C529.992676,687.849854 526.546814,688.337952 522.683105,688.986450 
z"/>
<path fill="#6366f1" opacity="1.000000" stroke="none" 
	d="
M578.653564,662.747314 
	C584.454468,662.426697 586.123840,663.819336 586.310120,668.825012 
	C586.390503,670.984619 586.340759,673.150085 586.311462,675.312378 
	C586.280823,677.566040 585.161133,679.395020 583.061401,679.833557 
	C578.196533,680.849792 573.271851,681.690186 568.329651,682.185364 
	C565.214294,682.497559 563.364624,680.403442 562.948059,677.416687 
	C562.533081,674.441956 564.288025,672.438293 566.996521,672.026978 
	C571.719971,671.309631 576.294373,670.878540 576.519470,664.520325 
	C576.539429,663.955383 577.677368,663.429932 578.653564,662.747314 
z"/>
<path fill="#8b5cf6" opacity="1.000000" stroke="none" 
	d="
M525.919312,731.630859 
	C531.095276,730.962097 535.831665,730.232361 540.590942,729.711914 
	C543.827759,729.357971 546.185791,730.776184 546.714844,734.117065 
	C547.282043,737.698730 544.870117,739.264404 541.859436,739.812561 
	C536.983826,740.700378 532.057739,741.309204 527.155396,742.052063 
	C523.380310,742.624146 519.769836,742.235046 518.995056,737.808838 
	C518.167786,733.083252 521.727966,732.043762 525.919312,731.630859 
z"/>
<path fill="#6366f1" opacity="1.000000" stroke="none" 
	d="
M493.024902,647.824829 
	C494.243774,645.779907 495.820801,644.889343 497.757446,644.856140 
	C502.081421,644.782043 506.415314,644.671509 510.730133,644.882751 
	C513.913879,645.038574 516.163879,646.802246 516.170654,650.209167 
	C516.177612,653.727173 513.797302,655.163025 510.592773,655.255005 
	C506.602356,655.369507 502.601349,655.422241 498.614197,655.265320 
	C493.871155,655.078674 492.513275,653.284912 493.024902,647.824829 
z"/>
<path fill="#8b5cf6" opacity="1.000000" stroke="none" 
	d="
M514.918274,767.190369 
	C511.804047,767.082764 509.119629,767.217407 506.521973,766.805176 
	C503.600739,766.341553 501.627716,764.461365 501.875183,761.319580 
	C502.120911,758.199829 504.175385,756.705872 507.290527,756.696777 
	C511.104401,756.685608 514.918701,756.706482 518.731995,756.655945 
	C522.334473,756.608154 525.083557,757.780151 525.209106,761.818787 
	C525.340393,766.040588 522.277405,766.924744 518.867615,767.146667 
	C517.711121,767.221924 516.546997,767.179810 514.918274,767.190369 
z"/>
<path fill="#6366f1" opacity="1.000000" stroke="none" 
	d="
M546.292542,386.322266 
	C547.450012,391.401062 547.277344,396.627502 552.729980,399.318176 
	C554.542725,400.212646 553.782898,401.951782 552.499634,402.990570 
	C549.271179,405.603943 545.684265,406.383423 541.935181,404.207581 
	C538.163513,402.018677 536.200562,396.501984 537.931152,391.918335 
	C539.257996,388.404022 541.006409,384.708557 546.292542,386.322266 
z"/>
</svg>